<svg width="32" height="32" viewBox="0 0 32 32" fill="none" xmlns="http://www.w3.org/2000/svg">
    <path d="M25.1539 27.5825C24.9346 27.5825 24.7483 27.4137 24.7483 27.182C24.7483 26.9531 24.9346 26.784 25.1539 26.784C25.3713 26.784 25.5579 26.9531 25.5579 27.182C25.5579 27.4137 25.3713 27.5825 25.1539 27.5825ZM24.8286 27.182C24.8286 27.3745 24.9714 27.5161 25.1539 27.5161C25.3344 27.5161 25.4776 27.3745 25.4776 27.182C25.4776 26.9934 25.3344 26.8507 25.1539 26.8507C24.9714 26.8507 24.8286 26.9934 24.8286 27.182ZM25.0693 27.214V27.4137H25V26.9531H25.1753C25.284 26.9531 25.3377 26.9934 25.3377 27.084C25.3377 27.1664 25.2859 27.202 25.2187 27.2108L25.3488 27.4137H25.2712L25.1502 27.214H25.0693ZM25.0693 27.1545H25.1533C25.2122 27.1545 25.2653 27.1511 25.2653 27.0801C25.2653 27.0228 25.2134 27.0126 25.1644 27.0126H25.0693V27.1545ZM25.193 18.5927C25.1622 18.656 25.1013 18.6994 25.0314 18.7075C23.4399 18.8927 21.7485 18.6708 21.0966 18.5682C20.0081 17.4783 18.8297 16.266 17.961 15.2067C17.8718 15.098 17.8678 14.9429 17.9496 14.8285C19.1883 13.0979 20.3228 11.7242 20.8026 11.1803C22.1727 10.8809 23.5393 10.616 24.4619 10.5784C24.5316 10.5755 24.5981 10.6077 24.6387 10.6644C25.8283 12.3224 26.6791 13.911 26.952 14.4916C26.4058 15.9622 25.7488 17.4481 25.193 18.5927ZM23.6742 21.3982C22.7971 22.8701 22.1305 23.7577 21.917 24.0273C21.627 24.4375 20.888 25.5062 19.7401 26.5868C19.6667 26.6558 19.5712 26.6957 19.4706 26.7C18.033 26.76 16.6961 26.659 16.1756 26.5451C15.735 26.3626 14.7092 25.9002 13.4965 25.2282C13.3909 25.1698 13.3285 25.0555 13.3366 24.9351C13.3997 23.9931 13.6979 22.6513 13.9619 21.2325C14.6141 20.0846 15.2901 18.775 15.9913 17.6992C16.0652 17.586 16.2037 17.5334 16.3341 17.569C18.4336 18.1435 20.2554 18.5796 20.995 18.7464C22.0075 19.9233 22.989 20.7508 23.6493 21.2636C23.6903 21.2956 23.7009 21.3534 23.6742 21.3982ZM10.9721 23.4437C10.8657 23.5099 10.7301 23.5063 10.628 23.4339C9.71379 22.7851 8.62287 21.9567 7.71448 21.1057C7.17863 20.188 6.76519 19.0132 6.4768 18.013C6.45822 17.9485 6.47243 17.8789 6.51475 17.8269C7.53415 16.571 8.75778 15.5772 9.26912 15.1988C10.4231 15.6977 11.7476 16.1377 12.9061 16.5238C13.0246 16.5633 13.1082 16.6696 13.118 16.7941C13.2815 18.8599 13.659 20.5302 13.76 21.1685C13.3274 21.6318 12.197 22.6818 10.9721 23.4437ZM5.89427 15.3163C5.74313 14.341 5.64351 13.3171 5.63259 12.8481C5.60745 11.7651 5.77935 10.8062 5.97874 9.91806C6.01137 9.77286 6.08678 9.64092 6.19654 9.54006C6.77549 9.00858 7.82284 8.07068 8.48392 7.64584C9.10689 7.24551 10.8383 6.6853 11.5523 6.47732C11.6908 6.43704 11.8382 6.49871 11.9094 6.62409C11.9952 6.77507 12.0852 6.92527 12.1801 7.07298C12.7423 7.94999 13.3617 8.70521 13.6226 9.032C13.2768 10.4082 13.13 11.9511 13.0629 13.2526C13.0566 13.3747 12.9792 13.4817 12.8654 13.5262C11.0586 14.2324 9.69318 14.7849 9.23445 14.9971C7.99334 15.0496 6.81093 15.2615 6.01293 15.4014C5.95641 15.4112 5.90317 15.3728 5.89427 15.3163ZM15.2222 5.72554C17.0799 5.47962 18.7796 5.4434 19.4327 5.46151C20.6215 6.25374 21.7831 7.29906 22.7103 8.2902C22.7754 8.35984 22.7851 8.46445 22.7339 8.5447C22.072 9.58159 21.1099 10.5771 20.6872 11.0107C19.12 11.3824 17.4581 11.9236 16.1095 12.3672C15.9781 12.4103 15.834 12.3614 15.7557 12.2474C14.7323 10.7574 14.0818 9.48057 13.8267 9.00639C14.1035 7.7645 14.4906 6.65844 15.0011 5.86559C15.0506 5.78877 15.1315 5.7374 15.2222 5.72554ZM27.4106 18.0951C27.3773 18.1104 27.3392 18.087 27.3372 18.0503C27.2593 16.521 27.1189 15.0352 27.0455 14.4916C27.0513 13.1708 26.8327 11.8004 26.6149 10.7898C26.6071 10.7532 26.6391 10.7204 26.6758 10.7279C27.923 10.9832 28.3232 11.451 28.3232 11.451C27.663 9.96787 26.7118 8.85026 25.6778 8.00557C24.7939 6.151 23.7767 5.29351 23.7767 5.29351C23.859 5.70368 23.8021 6.16755 23.6563 6.64611C23.6471 6.67671 23.6124 6.69123 23.5838 6.67718C21.8896 5.84732 20.1401 5.46807 19.4633 5.3733C18.452 4.88085 17.3475 4.55499 16.4494 4.30799C16.4254 4.30143 16.419 4.27021 16.4382 4.25428C17.6304 3.26298 18.727 3.01082 18.727 3.01082C16.7856 2.93276 15.1146 3.28453 13.7175 3.82257C11.63 3.65488 10.3002 4.01852 10.3002 4.01852C10.3002 4.01852 10.8768 4.70972 11.1007 5.09444C11.1279 5.14112 11.1137 5.20046 11.0693 5.23121C9.75641 6.14304 8.8143 7.14464 8.44301 7.56152C8.0291 7.61773 7.31244 7.71688 6.68649 7.87145C6.66151 7.87754 6.64043 7.85256 6.65043 7.82867C7.27731 6.33352 7.96055 5.5057 7.96055 5.5057C7.96055 5.5057 3.93197 8.37077 3.16831 13.5192C3.16831 13.5192 3.49979 12.6065 4.62161 11.2233C4.63629 11.2051 4.66502 11.209 4.6747 11.2302C4.99243 11.9349 5.35576 12.5608 5.53844 12.8481C4.92155 13.8425 4.49561 14.9272 4.23346 15.8146C4.22425 15.8456 4.20099 15.8701 4.17085 15.8816C3.23779 16.2362 3 16.5747 3 16.5747C3.14505 17.0709 3.42984 17.5545 3.78989 18.0104C3.82111 18.0499 3.83704 18.0992 3.83485 18.1495C3.73571 20.3466 4.44362 21.7929 4.44362 21.7929C4.60335 21.0255 4.9164 20.2801 5.31173 19.5803C5.32734 19.5525 5.36435 19.5455 5.38948 19.5655C6.31021 20.2979 7.26404 20.938 7.64251 21.1654C7.83799 21.6647 8.39679 22.9601 9.14374 24.2892C9.15951 24.3171 9.14655 24.3526 9.11657 24.3636C8.22223 24.69 7.30447 24.8377 6.46322 24.6323C6.46322 24.6323 7.47778 25.8981 10.6077 26.4379C11.4761 27.4653 12.5328 28.3162 13.7667 28.6121C13.7667 28.6121 13.405 28.2138 13.3157 26.7299C13.3139 26.6999 13.3378 26.6743 13.3681 26.6747C14.1407 26.6865 15.1891 26.7032 16.1486 26.6335C16.4886 26.9021 17.2309 27.491 17.9547 27.8667C17.9906 27.8853 17.9928 27.9362 17.9582 27.9571C16.6858 28.7274 15.8393 28.7946 15.8393 28.7946C21.6027 28.9175 25.0631 25.1545 25.0631 25.1545C24.1138 25.7796 23.0175 26.1684 21.9263 26.4001C21.8895 26.4081 21.8573 26.3753 21.8648 26.3384C22.0676 25.357 22.0108 24.4081 21.9964 24.0735C23.3639 23.7343 24.5569 23.1225 25.4398 22.4974C25.4578 22.4847 25.4815 22.4846 25.4995 22.4972C25.8672 22.753 26.1818 23.0404 26.4958 23.5188C26.4958 23.5188 27.0936 22.6718 27.2995 20.7095C28.7799 18.7748 29 16.7945 29 16.7945C28.6286 17.3761 28.0676 17.7949 27.4106 18.0951Z" fill="#003A99"/>
</svg>